# xmcd
#
# Track frame offsets:
#	150
#	14137
#	31646
#	46895
#	63900
#	78965
#	93916
#	109854
#	126147
#	140364
#	155299
#	169918
#	189199
#	202701
#
# Disc length: 2899 seconds
#
# Revision: 1
# Processed by: cddbd v1.4PL0 Copyright (c) Steve Scherf et al.
# Submitted via: audiograbber 1.82.01
#
DISCID=a60b510e
DTITLE=Ataíde and  Alexandre - Momento Especial
DYEAR=2003
DGENRE=Sertanejo
TTITLE0=As Avenidas
TTITLE1=Táxi
TTITLE2=Rosas e Versos
TTITLE3=Doces Palavras
TTITLE4=Madrugada Amiga
TTITLE5=Não Consigo Te Trair
TTITLE6=Basta Você Voltar
TTITLE7=Você Marcou Pra Mim
TTITLE8=Luzes da Ribalta (Limelight)
TTITLE9=Convite de Casamento
TTITLE10=Deus Me Livre
TTITLE11=Laço Aberta
TTITLE12=Tá Nervoso---Vai Pescá
TTITLE13=Mulher Boa Era Maria
EXTD=Regravações de Grandes Sucessos
EXTT0=
EXTT1=
EXTT2=
EXTT3=
EXTT4=
EXTT5=
EXTT6=
EXTT7=
EXTT8=
EXTT9=
EXTT10=
EXTT11=
EXTT12=
EXTT13=
PLAYORDER=
